<?xml version="1.0" encoding="utf-8"?>
<!-- Generator: Adobe Illustrator 21.1.0, SVG Export Plug-In . SVG Version: 6.00 Build 0)  -->
<svg version="1.1" id="Capa_1" xmlns="http://www.w3.org/2000/svg" xmlns:xlink="http://www.w3.org/1999/xlink" x="0px" y="0px"
	 viewBox="0 0 64 64" style="enable-background:new 0 0 64 64;" xml:space="preserve">
<style type="text/css">
	.st0{fill:#FFFFFF;}
</style>
<g>
	<g>
		<path class="st0" d="M13,6.1V0h-2v6.1C7.6,6.6,5,9.5,5,13s2.6,6.4,6,6.9V64h2V19.9c3.4-0.5,6-3.4,6-6.9S16.4,6.6,13,6.1z M12,18
			c-2.8,0-5-2.2-5-5s2.2-5,5-5s5,2.2,5,5S14.8,18,12,18z"/>
		<path class="st0" d="M53,44.1V0h-2v44.1c-3.4,0.5-6,3.4-6,6.9s2.6,6.4,6,6.9V64h2v-6.1c3.4-0.5,6-3.4,6-6.9S56.4,44.6,53,44.1z
			 M52,56c-2.8,0-5-2.2-5-5s2.2-5,5-5s5,2.2,5,5S54.8,56,52,56z"/>
		<path class="st0" d="M33,25.1V0h-2v25.1c-3.4,0.5-6,3.4-6,6.9s2.6,6.4,6,6.9V64h2V38.9c3.4-0.5,6-3.4,6-6.9S36.4,25.6,33,25.1z
			 M32,37c-2.8,0-5-2.2-5-5s2.2-5,5-5s5,2.2,5,5S34.8,37,32,37z"/>
	</g>
</g>
</svg>
