<?xml version="1.0" encoding="utf-8"?>
<!-- Generator: Adobe Illustrator 21.1.0, SVG Export Plug-In . SVG Version: 6.00 Build 0)  -->
<svg version="1.1" id="Capa_1" xmlns="http://www.w3.org/2000/svg" xmlns:xlink="http://www.w3.org/1999/xlink" x="0px" y="0px"
	 viewBox="0 0 57 57" style="enable-background:new 0 0 57 57;" xml:space="preserve">
<style type="text/css">
	.st0{fill:#FFFFFF;}
</style>
<path class="st0" d="M56.6,27.7l-27-19c-0.3-0.2-0.7-0.2-1-0.1C28.2,8.8,28,9.1,28,9.5v17.8L1.6,8.7c-0.3-0.2-0.7-0.2-1-0.1
	C0.2,8.8,0,9.1,0,9.5v38c0,0.4,0.2,0.7,0.5,0.9c0.1,0.1,0.3,0.1,0.5,0.1c0.2,0,0.4-0.1,0.6-0.2L28,29.7v17.8c0,0.4,0.2,0.7,0.5,0.9
	c0.1,0.1,0.3,0.1,0.5,0.1c0.2,0,0.4-0.1,0.6-0.2l27-19c0.3-0.2,0.4-0.5,0.4-0.8S56.8,27.9,56.6,27.7z M2,45.6V11.4l24.3,17.1L2,45.6
	z M30,45.6V11.4l24.3,17.1L30,45.6z"/>
</svg>
