<?xml version="1.0" encoding="utf-8"?>
<!-- Generator: Adobe Illustrator 21.1.0, SVG Export Plug-In . SVG Version: 6.00 Build 0)  -->
<svg version="1.1" id="Capa_1" xmlns="http://www.w3.org/2000/svg" xmlns:xlink="http://www.w3.org/1999/xlink" x="0px" y="0px"
	 viewBox="0 0 64 64" style="enable-background:new 0 0 64 64;" xml:space="preserve">
<style type="text/css">
	.st0{fill:#FFFFFF;}
</style>
<g>
	<g>
		<polygon class="st0" points="2,3.4 21.3,22.7 22.7,21.3 3.4,2 12,2 12,0 1,0 0,1 0,12 2,12 		"/>
		<polygon class="st0" points="12,64 12,62 3.4,62 22.7,42.7 21.3,41.3 2,60.6 2,52 0,52 0,63 1,64 		"/>
		<polygon class="st0" points="62,60.6 42.7,41.3 41.3,42.7 60.6,62 52,62 52,64 63,64 64,63 64,52 62,52 		"/>
		<polygon class="st0" points="52,0 52,2 60.6,2 41.3,21.3 42.7,22.7 62,3.4 62,12 64,12 64,1 63,0 		"/>
	</g>
</g>
</svg>
