<?xml version="1.0" encoding="utf-8"?>
<!-- Generator: Adobe Illustrator 21.1.0, SVG Export Plug-In . SVG Version: 6.00 Build 0)  -->
<svg version="1.1" id="Capa_1" xmlns="http://www.w3.org/2000/svg" xmlns:xlink="http://www.w3.org/1999/xlink" x="0px" y="0px"
	 viewBox="0 0 59 59" style="enable-background:new 0 0 59 59;" xml:space="preserve">
<style type="text/css">
	.st0{fill:#FFFFFF;}
</style>
<g>
	<path class="st0" d="M19.5,12c0.3,0,0.5-0.1,0.7-0.3l8.3-8.3V39c0,0.6,0.4,1,1,1s1-0.4,1-1V3.4l8.3,8.3c0.4,0.4,1,0.4,1.4,0
		s0.4-1,0-1.4l-10-10c-0.1-0.1-0.2-0.2-0.3-0.2c-0.2-0.1-0.5-0.1-0.8,0c-0.1,0.1-0.2,0.1-0.3,0.2l-10,10c-0.4,0.4-0.4,1,0,1.4
		C19,11.9,19.2,12,19.5,12z"/>
	<path class="st0" d="M36.5,16c-0.6,0-1,0.4-1,1s0.4,1,1,1h13v39h-40V18h13c0.6,0,1-0.4,1-1s-0.4-1-1-1h-15v43h44V16
		C51.5,16,36.5,16,36.5,16z"/>
</g>
</svg>
